<mxfile host="Electron" modified="2024-03-14T21:08:45.694Z" agent="Mozilla/5.0 (Windows NT 10.0; Win64; x64) AppleWebKit/537.36 (KHTML, like Gecko) draw.io/24.0.4 Chrome/120.0.6099.109 Electron/28.1.0 Safari/537.36" etag="HN0kKF-Ri4ml68TRhol_" version="24.0.4" type="device">
  <diagram name="Page-1" id="0dGADS9njSJkxNdPXGh4">
    <mxGraphModel dx="3537" dy="3370" grid="1" gridSize="10" guides="1" tooltips="1" connect="1" arrows="1" fold="1" page="1" pageScale="1" pageWidth="850" pageHeight="1100" math="0" shadow="0">
      <root>
        <mxCell id="0" />
        <mxCell id="1" parent="0" />
        <mxCell id="0JFCgkChCbE0tJgiea0F-1" value="&lt;u&gt;Username&lt;/u&gt;" style="rounded=0;whiteSpace=wrap;html=1;" vertex="1" parent="1">
          <mxGeometry x="-911" y="-1020" width="120" height="30" as="geometry" />
        </mxCell>
        <mxCell id="0JFCgkChCbE0tJgiea0F-2" value="FirstName" style="whiteSpace=wrap;html=1;rounded=0;" vertex="1" parent="1">
          <mxGeometry x="-681" y="-1020" width="120" height="30" as="geometry" />
        </mxCell>
        <mxCell id="0JFCgkChCbE0tJgiea0F-4" value="&lt;span style=&quot;color: rgb(0, 0, 0); font-family: Helvetica; font-size: 12px; font-style: normal; font-variant-ligatures: normal; font-variant-caps: normal; font-weight: 400; letter-spacing: normal; orphans: 2; text-align: center; text-indent: 0px; text-transform: none; widows: 2; word-spacing: 0px; -webkit-text-stroke-width: 0px; white-space: normal; background-color: rgb(251, 251, 251); text-decoration-thickness: initial; text-decoration-style: initial; text-decoration-color: initial; display: inline !important; float: none;&quot;&gt;User&lt;/span&gt;" style="text;whiteSpace=wrap;html=1;" vertex="1" parent="1">
          <mxGeometry x="-911" y="-1050" width="90" height="40" as="geometry" />
        </mxCell>
        <mxCell id="0JFCgkChCbE0tJgiea0F-5" value="LastName" style="whiteSpace=wrap;html=1;rounded=0;" vertex="1" parent="1">
          <mxGeometry x="-561" y="-1020" width="120" height="30" as="geometry" />
        </mxCell>
        <mxCell id="0JFCgkChCbE0tJgiea0F-6" value="Password" style="whiteSpace=wrap;html=1;rounded=0;" vertex="1" parent="1">
          <mxGeometry x="-801" y="-1020" width="120" height="30" as="geometry" />
        </mxCell>
        <mxCell id="0JFCgkChCbE0tJgiea0F-13" value="&lt;u&gt;Username&lt;/u&gt;" style="rounded=0;whiteSpace=wrap;html=1;" vertex="1" parent="1">
          <mxGeometry x="-911" y="-920" width="120" height="30" as="geometry" />
        </mxCell>
        <mxCell id="0JFCgkChCbE0tJgiea0F-15" value="&lt;span style=&quot;color: rgb(0, 0, 0); font-family: Helvetica; font-size: 12px; font-style: normal; font-variant-ligatures: normal; font-variant-caps: normal; font-weight: 400; letter-spacing: normal; orphans: 2; text-align: center; text-indent: 0px; text-transform: none; widows: 2; word-spacing: 0px; -webkit-text-stroke-width: 0px; white-space: normal; background-color: rgb(251, 251, 251); text-decoration-thickness: initial; text-decoration-style: initial; text-decoration-color: initial; display: inline !important; float: none;&quot;&gt;RegularUser&lt;/span&gt;" style="text;whiteSpace=wrap;html=1;" vertex="1" parent="1">
          <mxGeometry x="-911" y="-950" width="90" height="40" as="geometry" />
        </mxCell>
        <mxCell id="0JFCgkChCbE0tJgiea0F-18" value="&lt;u&gt;Username&lt;/u&gt;" style="rounded=0;whiteSpace=wrap;html=1;" vertex="1" parent="1">
          <mxGeometry x="-911" y="-820" width="120" height="30" as="geometry" />
        </mxCell>
        <mxCell id="0JFCgkChCbE0tJgiea0F-20" value="&lt;span style=&quot;color: rgb(0, 0, 0); font-family: Helvetica; font-size: 12px; font-style: normal; font-variant-ligatures: normal; font-variant-caps: normal; font-weight: 400; letter-spacing: normal; orphans: 2; text-align: center; text-indent: 0px; text-transform: none; widows: 2; word-spacing: 0px; -webkit-text-stroke-width: 0px; white-space: normal; background-color: rgb(251, 251, 251); text-decoration-thickness: initial; text-decoration-style: initial; text-decoration-color: initial; display: inline !important; float: none;&quot;&gt;AdminUser&lt;/span&gt;" style="text;whiteSpace=wrap;html=1;" vertex="1" parent="1">
          <mxGeometry x="-911" y="-850" width="90" height="40" as="geometry" />
        </mxCell>
        <mxCell id="0JFCgkChCbE0tJgiea0F-22" value="Position" style="whiteSpace=wrap;html=1;rounded=0;" vertex="1" parent="1">
          <mxGeometry x="-791" y="-820" width="120" height="30" as="geometry" />
        </mxCell>
        <mxCell id="0JFCgkChCbE0tJgiea0F-25" value="" style="endArrow=classic;html=1;rounded=0;fillColor=#99FF33;strokeColor=#66FF66;strokeWidth=2;exitX=0.667;exitY=0.812;exitDx=0;exitDy=0;exitPerimeter=0;entryX=0.5;entryY=1;entryDx=0;entryDy=0;" edge="1" parent="1">
          <mxGeometry width="50" height="50" relative="1" as="geometry">
            <mxPoint x="-820.97" y="-919.9999999999998" as="sourcePoint" />
            <mxPoint x="-821" y="-992.48" as="targetPoint" />
          </mxGeometry>
        </mxCell>
        <mxCell id="0JFCgkChCbE0tJgiea0F-28" value="" style="endArrow=classic;html=1;rounded=0;fillColor=#99FF33;strokeColor=#66FF66;strokeWidth=2;" edge="1" parent="1">
          <mxGeometry width="50" height="50" relative="1" as="geometry">
            <mxPoint x="-911" y="-810" as="sourcePoint" />
            <mxPoint x="-911" y="-1007" as="targetPoint" />
            <Array as="points">
              <mxPoint x="-971" y="-810" />
              <mxPoint x="-971" y="-900" />
              <mxPoint x="-971" y="-1007" />
            </Array>
          </mxGeometry>
        </mxCell>
        <mxCell id="0JFCgkChCbE0tJgiea0F-35" value="Description" style="whiteSpace=wrap;html=1;rounded=0;" vertex="1" parent="1">
          <mxGeometry x="-551" y="-730" width="120" height="30" as="geometry" />
        </mxCell>
        <mxCell id="0JFCgkChCbE0tJgiea0F-36" value="Returnable" style="whiteSpace=wrap;html=1;rounded=0;" vertex="1" parent="1">
          <mxGeometry x="-431" y="-730" width="120" height="30" as="geometry" />
        </mxCell>
        <mxCell id="0JFCgkChCbE0tJgiea0F-37" value="ItemName" style="whiteSpace=wrap;html=1;rounded=0;" vertex="1" parent="1">
          <mxGeometry x="-671" y="-730" width="120" height="30" as="geometry" />
        </mxCell>
        <mxCell id="0JFCgkChCbE0tJgiea0F-38" value="&lt;span style=&quot;color: rgb(0, 0, 0); font-family: Helvetica; font-size: 12px; font-style: normal; font-variant-ligatures: normal; font-variant-caps: normal; font-weight: 400; letter-spacing: normal; orphans: 2; text-align: center; text-indent: 0px; text-transform: none; widows: 2; word-spacing: 0px; -webkit-text-stroke-width: 0px; white-space: normal; background-color: rgb(251, 251, 251); text-decoration-thickness: initial; text-decoration-style: initial; text-decoration-color: initial; display: inline !important; float: none;&quot;&gt;Item&lt;/span&gt;" style="text;whiteSpace=wrap;html=1;" vertex="1" parent="1">
          <mxGeometry x="-911" y="-760" width="90" height="40" as="geometry" />
        </mxCell>
        <mxCell id="0JFCgkChCbE0tJgiea0F-39" value="Username" style="rounded=0;whiteSpace=wrap;html=1;" vertex="1" parent="1">
          <mxGeometry x="-911" y="-730" width="120" height="30" as="geometry" />
        </mxCell>
        <mxCell id="0JFCgkChCbE0tJgiea0F-40" value="" style="endArrow=classic;html=1;rounded=0;fillColor=#99FF33;strokeColor=#66FF66;strokeWidth=2;" edge="1" parent="1">
          <mxGeometry width="50" height="50" relative="1" as="geometry">
            <mxPoint x="-911" y="-710" as="sourcePoint" />
            <mxPoint x="-911" y="-997" as="targetPoint" />
            <Array as="points">
              <mxPoint x="-941" y="-710" />
              <mxPoint x="-941" y="-997" />
            </Array>
          </mxGeometry>
        </mxCell>
        <mxCell id="0JFCgkChCbE0tJgiea0F-41" value="&lt;u&gt;ItemId&lt;/u&gt;" style="rounded=0;whiteSpace=wrap;html=1;" vertex="1" parent="1">
          <mxGeometry x="-791" y="-730" width="120" height="30" as="geometry" />
        </mxCell>
        <mxCell id="0JFCgkChCbE0tJgiea0F-43" value="Condition" style="whiteSpace=wrap;html=1;rounded=0;" vertex="1" parent="1">
          <mxGeometry x="-311" y="-730" width="120" height="30" as="geometry" />
        </mxCell>
        <mxCell id="0JFCgkChCbE0tJgiea0F-47" value="&lt;u&gt;CategoryId&lt;/u&gt;" style="rounded=0;whiteSpace=wrap;html=1;" vertex="1" parent="1">
          <mxGeometry x="-911" y="-630" width="120" height="30" as="geometry" />
        </mxCell>
        <mxCell id="0JFCgkChCbE0tJgiea0F-48" value="&lt;span style=&quot;color: rgb(0, 0, 0); font-family: Helvetica; font-size: 12px; font-style: normal; font-variant-ligatures: normal; font-variant-caps: normal; font-weight: 400; letter-spacing: normal; orphans: 2; text-align: center; text-indent: 0px; text-transform: none; widows: 2; word-spacing: 0px; -webkit-text-stroke-width: 0px; white-space: normal; background-color: rgb(251, 251, 251); text-decoration-thickness: initial; text-decoration-style: initial; text-decoration-color: initial; display: inline !important; float: none;&quot;&gt;Category&lt;/span&gt;" style="text;whiteSpace=wrap;html=1;" vertex="1" parent="1">
          <mxGeometry x="-911" y="-660" width="90" height="40" as="geometry" />
        </mxCell>
        <mxCell id="0JFCgkChCbE0tJgiea0F-49" value="Category" style="whiteSpace=wrap;html=1;rounded=0;" vertex="1" parent="1">
          <mxGeometry x="-791" y="-630" width="120" height="30" as="geometry" />
        </mxCell>
        <mxCell id="0JFCgkChCbE0tJgiea0F-50" value="ItemId" style="whiteSpace=wrap;html=1;rounded=0;" vertex="1" parent="1">
          <mxGeometry x="-671" y="-630" width="120" height="30" as="geometry" />
        </mxCell>
        <mxCell id="0JFCgkChCbE0tJgiea0F-51" value="" style="endArrow=classic;html=1;rounded=0;exitX=0.5;exitY=0;exitDx=0;exitDy=0;fillColor=#99FF33;strokeColor=#66FF66;strokeWidth=2;entryX=0.75;entryY=1;entryDx=0;entryDy=0;" edge="1" parent="1" source="0JFCgkChCbE0tJgiea0F-50" target="0JFCgkChCbE0tJgiea0F-41">
          <mxGeometry width="50" height="50" relative="1" as="geometry">
            <mxPoint x="-611.42" y="-620" as="sourcePoint" />
            <mxPoint x="-701" y="-710" as="targetPoint" />
          </mxGeometry>
        </mxCell>
        <mxCell id="0JFCgkChCbE0tJgiea0F-52" value="StartingBid" style="whiteSpace=wrap;html=1;rounded=0;" vertex="1" parent="1">
          <mxGeometry x="-431" y="-530" width="120" height="30" as="geometry" />
        </mxCell>
        <mxCell id="0JFCgkChCbE0tJgiea0F-53" value="MinSalePrice" style="whiteSpace=wrap;html=1;rounded=0;" vertex="1" parent="1">
          <mxGeometry x="-311" y="-530" width="120" height="30" as="geometry" />
        </mxCell>
        <mxCell id="0JFCgkChCbE0tJgiea0F-54" value="CancelReason" style="whiteSpace=wrap;html=1;rounded=0;" vertex="1" parent="1">
          <mxGeometry x="-551" y="-530" width="120" height="30" as="geometry" />
        </mxCell>
        <mxCell id="0JFCgkChCbE0tJgiea0F-55" value="&lt;span style=&quot;color: rgb(0, 0, 0); font-family: Helvetica; font-size: 12px; font-style: normal; font-variant-ligatures: normal; font-variant-caps: normal; font-weight: 400; letter-spacing: normal; orphans: 2; text-align: center; text-indent: 0px; text-transform: none; widows: 2; word-spacing: 0px; -webkit-text-stroke-width: 0px; white-space: normal; background-color: rgb(251, 251, 251); text-decoration-thickness: initial; text-decoration-style: initial; text-decoration-color: initial; display: inline !important; float: none;&quot;&gt;Auction&lt;/span&gt;" style="text;whiteSpace=wrap;html=1;" vertex="1" parent="1">
          <mxGeometry x="-911" y="-560" width="90" height="40" as="geometry" />
        </mxCell>
        <mxCell id="0JFCgkChCbE0tJgiea0F-56" value="&lt;u&gt;ItemId&lt;/u&gt;" style="rounded=0;whiteSpace=wrap;html=1;" vertex="1" parent="1">
          <mxGeometry x="-911" y="-530" width="120" height="30" as="geometry" />
        </mxCell>
        <mxCell id="0JFCgkChCbE0tJgiea0F-57" value="Winner" style="rounded=0;whiteSpace=wrap;html=1;" vertex="1" parent="1">
          <mxGeometry x="-671" y="-530" width="120" height="30" as="geometry" />
        </mxCell>
        <mxCell id="0JFCgkChCbE0tJgiea0F-58" value="GetItNowPrice" style="whiteSpace=wrap;html=1;rounded=0;" vertex="1" parent="1">
          <mxGeometry x="-191" y="-530" width="120" height="30" as="geometry" />
        </mxCell>
        <mxCell id="0JFCgkChCbE0tJgiea0F-59" value="AunctionLength" style="whiteSpace=wrap;html=1;rounded=0;" vertex="1" parent="1">
          <mxGeometry x="-71" y="-530" width="120" height="30" as="geometry" />
        </mxCell>
        <mxCell id="0JFCgkChCbE0tJgiea0F-60" value="AuctionEnd" style="whiteSpace=wrap;html=1;rounded=0;" vertex="1" parent="1">
          <mxGeometry x="49" y="-530" width="120" height="30" as="geometry" />
        </mxCell>
        <mxCell id="0JFCgkChCbE0tJgiea0F-61" value="Username" style="rounded=0;whiteSpace=wrap;html=1;" vertex="1" parent="1">
          <mxGeometry x="-791" y="-530" width="120" height="30" as="geometry" />
        </mxCell>
        <mxCell id="0JFCgkChCbE0tJgiea0F-69" value="" style="endArrow=classic;html=1;rounded=0;fillColor=#99FF33;strokeColor=#66FF66;strokeWidth=2;entryX=0.5;entryY=1;entryDx=0;entryDy=0;" edge="1" parent="1" source="0JFCgkChCbE0tJgiea0F-61" target="0JFCgkChCbE0tJgiea0F-18">
          <mxGeometry width="50" height="50" relative="1" as="geometry">
            <mxPoint x="-891" y="-513" as="sourcePoint" />
            <mxPoint x="-883" y="-800" as="targetPoint" />
            <Array as="points">
              <mxPoint x="-731" y="-560" />
              <mxPoint x="-951" y="-560" />
              <mxPoint x="-951" y="-760" />
              <mxPoint x="-851" y="-760" />
            </Array>
          </mxGeometry>
        </mxCell>
        <mxCell id="0JFCgkChCbE0tJgiea0F-70" value="&lt;u&gt;ItemId&lt;/u&gt;" style="rounded=0;whiteSpace=wrap;html=1;" vertex="1" parent="1">
          <mxGeometry x="-911" y="-450" width="120" height="30" as="geometry" />
        </mxCell>
        <mxCell id="0JFCgkChCbE0tJgiea0F-71" value="&lt;span style=&quot;color: rgb(0, 0, 0); font-family: Helvetica; font-size: 12px; font-style: normal; font-variant-ligatures: normal; font-variant-caps: normal; font-weight: 400; letter-spacing: normal; orphans: 2; text-align: center; text-indent: 0px; text-transform: none; widows: 2; word-spacing: 0px; -webkit-text-stroke-width: 0px; white-space: normal; background-color: rgb(251, 251, 251); text-decoration-thickness: initial; text-decoration-style: initial; text-decoration-color: initial; display: inline !important; float: none;&quot;&gt;Bid&lt;/span&gt;" style="text;whiteSpace=wrap;html=1;" vertex="1" parent="1">
          <mxGeometry x="-911" y="-480" width="90" height="40" as="geometry" />
        </mxCell>
        <mxCell id="0JFCgkChCbE0tJgiea0F-72" value="BidAmount" style="whiteSpace=wrap;html=1;rounded=0;" vertex="1" parent="1">
          <mxGeometry x="-671" y="-450" width="120" height="30" as="geometry" />
        </mxCell>
        <mxCell id="0JFCgkChCbE0tJgiea0F-73" value="TimeofBid" style="whiteSpace=wrap;html=1;rounded=0;" vertex="1" parent="1">
          <mxGeometry x="-791" y="-450" width="120" height="30" as="geometry" />
        </mxCell>
        <mxCell id="0JFCgkChCbE0tJgiea0F-74" value="" style="endArrow=classic;html=1;rounded=0;exitX=0.5;exitY=0;exitDx=0;exitDy=0;fillColor=#99FF33;strokeColor=#66FF66;strokeWidth=2;entryX=0.5;entryY=1;entryDx=0;entryDy=0;" edge="1" parent="1" target="0JFCgkChCbE0tJgiea0F-56">
          <mxGeometry width="50" height="50" relative="1" as="geometry">
            <mxPoint x="-851" y="-450" as="sourcePoint" />
            <mxPoint x="-851" y="-490" as="targetPoint" />
          </mxGeometry>
        </mxCell>
        <mxCell id="0JFCgkChCbE0tJgiea0F-76" value="ItemId" style="rounded=0;whiteSpace=wrap;html=1;" vertex="1" parent="1">
          <mxGeometry x="-911" y="-360" width="120" height="30" as="geometry" />
        </mxCell>
        <mxCell id="0JFCgkChCbE0tJgiea0F-77" value="&lt;span style=&quot;color: rgb(0, 0, 0); font-family: Helvetica; font-size: 12px; font-style: normal; font-variant-ligatures: normal; font-variant-caps: normal; font-weight: 400; letter-spacing: normal; orphans: 2; text-align: center; text-indent: 0px; text-transform: none; widows: 2; word-spacing: 0px; -webkit-text-stroke-width: 0px; white-space: normal; background-color: rgb(251, 251, 251); text-decoration-thickness: initial; text-decoration-style: initial; text-decoration-color: initial; display: inline !important; float: none;&quot;&gt;UserBidAunctions&lt;/span&gt;" style="text;whiteSpace=wrap;html=1;" vertex="1" parent="1">
          <mxGeometry x="-911" y="-390" width="90" height="40" as="geometry" />
        </mxCell>
        <mxCell id="0JFCgkChCbE0tJgiea0F-79" value="Username" style="whiteSpace=wrap;html=1;rounded=0;" vertex="1" parent="1">
          <mxGeometry x="-791" y="-360" width="120" height="30" as="geometry" />
        </mxCell>
        <mxCell id="0JFCgkChCbE0tJgiea0F-80" value="" style="endArrow=classic;html=1;rounded=0;fillColor=#99FF33;strokeColor=#66FF66;strokeWidth=2;exitX=0.5;exitY=0;exitDx=0;exitDy=0;entryX=0.5;entryY=1;entryDx=0;entryDy=0;" edge="1" parent="1" source="0JFCgkChCbE0tJgiea0F-56" target="0JFCgkChCbE0tJgiea0F-41">
          <mxGeometry width="50" height="50" relative="1" as="geometry">
            <mxPoint x="-721" y="-520" as="sourcePoint" />
            <mxPoint x="-841" y="-780" as="targetPoint" />
            <Array as="points">
              <mxPoint x="-851" y="-580" />
              <mxPoint x="-941" y="-580" />
              <mxPoint x="-941" y="-660" />
              <mxPoint x="-731" y="-660" />
            </Array>
          </mxGeometry>
        </mxCell>
        <mxCell id="0JFCgkChCbE0tJgiea0F-82" value="" style="endArrow=none;html=1;rounded=0;entryX=0.667;entryY=0.667;entryDx=0;entryDy=0;entryPerimeter=0;exitX=0.25;exitY=0.667;exitDx=0;exitDy=0;exitPerimeter=0;" edge="1" parent="1">
          <mxGeometry width="50" height="50" relative="1" as="geometry">
            <mxPoint x="-874" y="-339.99" as="sourcePoint" />
            <mxPoint x="-703.9599999999998" y="-339.99" as="targetPoint" />
          </mxGeometry>
        </mxCell>
        <mxCell id="0JFCgkChCbE0tJgiea0F-85" value="" style="endArrow=classic;html=1;rounded=0;fillColor=#99FF33;strokeColor=#66FF66;strokeWidth=2;exitX=0;exitY=0.5;exitDx=0;exitDy=0;entryX=0.085;entryY=1.002;entryDx=0;entryDy=0;entryPerimeter=0;" edge="1" parent="1" source="0JFCgkChCbE0tJgiea0F-76" target="0JFCgkChCbE0tJgiea0F-41">
          <mxGeometry width="50" height="50" relative="1" as="geometry">
            <mxPoint x="-1051" y="-350" as="sourcePoint" />
            <mxPoint x="-931" y="-520" as="targetPoint" />
            <Array as="points">
              <mxPoint x="-971" y="-345" />
              <mxPoint x="-971" y="-440" />
              <mxPoint x="-971" y="-680" />
              <mxPoint x="-781" y="-680" />
            </Array>
          </mxGeometry>
        </mxCell>
        <mxCell id="0JFCgkChCbE0tJgiea0F-86" value="" style="endArrow=classic;html=1;rounded=0;fillColor=#99FF33;strokeColor=#66FF66;strokeWidth=2;exitX=0.5;exitY=1;exitDx=0;exitDy=0;entryX=0;entryY=0.75;entryDx=0;entryDy=0;" edge="1" parent="1" source="0JFCgkChCbE0tJgiea0F-79" target="0JFCgkChCbE0tJgiea0F-4">
          <mxGeometry width="50" height="50" relative="1" as="geometry">
            <mxPoint x="-960" y="-240" as="sourcePoint" />
            <mxPoint x="-1080" y="-760" as="targetPoint" />
            <Array as="points">
              <mxPoint x="-730" y="-310" />
              <mxPoint x="-730" y="-270" />
              <mxPoint x="-1080" y="-270" />
              <mxPoint x="-1080" y="-470" />
              <mxPoint x="-1080" y="-1020" />
            </Array>
          </mxGeometry>
        </mxCell>
        <mxCell id="0JFCgkChCbE0tJgiea0F-87" value="ItemID" style="rounded=0;whiteSpace=wrap;html=1;" vertex="1" parent="1">
          <mxGeometry x="-791" y="-1120" width="120" height="30" as="geometry" />
        </mxCell>
        <mxCell id="0JFCgkChCbE0tJgiea0F-88" value="NoOfStars" style="whiteSpace=wrap;html=1;rounded=0;" vertex="1" parent="1">
          <mxGeometry x="-561" y="-1120" width="120" height="30" as="geometry" />
        </mxCell>
        <mxCell id="0JFCgkChCbE0tJgiea0F-89" value="&lt;span style=&quot;color: rgb(0, 0, 0); font-family: Helvetica; font-size: 12px; font-style: normal; font-variant-ligatures: normal; font-variant-caps: normal; font-weight: 400; letter-spacing: normal; orphans: 2; text-align: center; text-indent: 0px; text-transform: none; widows: 2; word-spacing: 0px; -webkit-text-stroke-width: 0px; white-space: normal; background-color: rgb(251, 251, 251); text-decoration-thickness: initial; text-decoration-style: initial; text-decoration-color: initial; display: inline !important; float: none;&quot;&gt;Rating&lt;/span&gt;" style="text;whiteSpace=wrap;html=1;" vertex="1" parent="1">
          <mxGeometry x="-911" y="-1150" width="90" height="40" as="geometry" />
        </mxCell>
        <mxCell id="0JFCgkChCbE0tJgiea0F-90" value="Comment" style="whiteSpace=wrap;html=1;rounded=0;" vertex="1" parent="1">
          <mxGeometry x="-441" y="-1120" width="120" height="30" as="geometry" />
        </mxCell>
        <mxCell id="0JFCgkChCbE0tJgiea0F-91" value="DeletedByUser" style="whiteSpace=wrap;html=1;rounded=0;" vertex="1" parent="1">
          <mxGeometry x="-681" y="-1120" width="120" height="30" as="geometry" />
        </mxCell>
        <mxCell id="0JFCgkChCbE0tJgiea0F-92" value="AvgRating" style="whiteSpace=wrap;html=1;rounded=0;" vertex="1" parent="1">
          <mxGeometry x="-321" y="-1120" width="120" height="30" as="geometry" />
        </mxCell>
        <mxCell id="0JFCgkChCbE0tJgiea0F-93" value="DateTime" style="whiteSpace=wrap;html=1;rounded=0;" vertex="1" parent="1">
          <mxGeometry x="-441" y="-1120" width="120" height="30" as="geometry" />
        </mxCell>
        <mxCell id="0JFCgkChCbE0tJgiea0F-94" value="Comment" style="whiteSpace=wrap;html=1;rounded=0;" vertex="1" parent="1">
          <mxGeometry x="-321" y="-1120" width="120" height="30" as="geometry" />
        </mxCell>
        <mxCell id="0JFCgkChCbE0tJgiea0F-95" value="AvgRating" style="whiteSpace=wrap;html=1;rounded=0;" vertex="1" parent="1">
          <mxGeometry x="-201" y="-1120" width="120" height="30" as="geometry" />
        </mxCell>
        <mxCell id="0JFCgkChCbE0tJgiea0F-96" value="Username" style="rounded=0;whiteSpace=wrap;html=1;" vertex="1" parent="1">
          <mxGeometry x="-911" y="-1120" width="120" height="30" as="geometry" />
        </mxCell>
        <mxCell id="0JFCgkChCbE0tJgiea0F-97" value="" style="endArrow=classic;html=1;rounded=0;fillColor=#99FF33;strokeColor=#66FF66;strokeWidth=2;exitX=0.595;exitY=1.12;exitDx=0;exitDy=0;entryX=0.778;entryY=0.75;entryDx=0;entryDy=0;entryPerimeter=0;exitPerimeter=0;" edge="1" parent="1">
          <mxGeometry width="50" height="50" relative="1" as="geometry">
            <mxPoint x="-850.3100000000002" y="-1086.4" as="sourcePoint" />
            <mxPoint x="-851.69" y="-1020" as="targetPoint" />
          </mxGeometry>
        </mxCell>
        <mxCell id="0JFCgkChCbE0tJgiea0F-98" value="" style="endArrow=none;html=1;rounded=0;entryX=0.667;entryY=0.667;entryDx=0;entryDy=0;entryPerimeter=0;exitX=0.25;exitY=0.667;exitDx=0;exitDy=0;exitPerimeter=0;" edge="1" parent="1">
          <mxGeometry width="50" height="50" relative="1" as="geometry">
            <mxPoint x="-881" y="-1100" as="sourcePoint" />
            <mxPoint x="-710.9599999999998" y="-1100" as="targetPoint" />
          </mxGeometry>
        </mxCell>
        <mxCell id="0JFCgkChCbE0tJgiea0F-99" value="" style="endArrow=classic;html=1;rounded=0;fillColor=#99FF33;strokeColor=#66FF66;strokeWidth=2;exitX=0.5;exitY=1;exitDx=0;exitDy=0;entryX=1;entryY=0.5;entryDx=0;entryDy=0;" edge="1" parent="1" source="0JFCgkChCbE0tJgiea0F-91" target="0JFCgkChCbE0tJgiea0F-13">
          <mxGeometry width="50" height="50" relative="1" as="geometry">
            <mxPoint x="-901" y="-800" as="sourcePoint" />
            <mxPoint x="-901" y="-997" as="targetPoint" />
            <Array as="points">
              <mxPoint x="-621" y="-1050" />
              <mxPoint x="-421" y="-1050" />
              <mxPoint x="-421" y="-905" />
            </Array>
          </mxGeometry>
        </mxCell>
        <mxCell id="0JFCgkChCbE0tJgiea0F-100" value="" style="endArrow=classic;html=1;rounded=0;fillColor=#99FF33;strokeColor=#66FF66;strokeWidth=2;exitX=0.75;exitY=1;exitDx=0;exitDy=0;entryX=1;entryY=0.75;entryDx=0;entryDy=0;" edge="1" parent="1" source="0JFCgkChCbE0tJgiea0F-91" target="0JFCgkChCbE0tJgiea0F-20">
          <mxGeometry width="50" height="50" relative="1" as="geometry">
            <mxPoint x="-611" y="-1080" as="sourcePoint" />
            <mxPoint x="-781" y="-895" as="targetPoint" />
            <Array as="points">
              <mxPoint x="-591" y="-1070" />
              <mxPoint x="-391" y="-1070" />
              <mxPoint x="-391" y="-870" />
              <mxPoint x="-821" y="-870" />
            </Array>
          </mxGeometry>
        </mxCell>
        <mxCell id="0JFCgkChCbE0tJgiea0F-101" value="" style="endArrow=classic;html=1;rounded=0;fillColor=#99FF33;strokeColor=#66FF66;strokeWidth=2;exitX=0.5;exitY=0;exitDx=0;exitDy=0;entryX=0.5;entryY=0;entryDx=0;entryDy=0;" edge="1" parent="1" source="0JFCgkChCbE0tJgiea0F-87" target="0JFCgkChCbE0tJgiea0F-41">
          <mxGeometry width="50" height="50" relative="1" as="geometry">
            <mxPoint x="-581" y="-1080" as="sourcePoint" />
            <mxPoint x="-811" y="-810" as="targetPoint" />
            <Array as="points">
              <mxPoint x="-731" y="-1170" />
              <mxPoint x="-31" y="-1170" />
              <mxPoint x="-31" y="-760" />
              <mxPoint x="-731" y="-760" />
            </Array>
          </mxGeometry>
        </mxCell>
      </root>
    </mxGraphModel>
  </diagram>
</mxfile>
